<svg width="15" height="9" viewBox="0 0 15 9" fill="none" xmlns="http://www.w3.org/2000/svg">
<path d="M14.1721 2.54545L7.96628 8.76972C7.8924 8.8436 7.81236 8.89606 7.72617 8.92708C7.63998 8.95811 7.54763 8.97338 7.44913 8.97289C7.35062 8.97289 7.25827 8.95737 7.17208 8.92635C7.08589 8.89532 7.00585 8.84311 6.93198 8.76972L0.707702 2.54545C0.535319 2.37306 0.449127 2.15759 0.449127 1.89901C0.449127 1.64044 0.541475 1.4188 0.726172 1.2341C0.910869 1.04941 1.12635 0.957058 1.37261 0.957058C1.61887 0.957058 1.83435 1.04941 2.01905 1.2341L7.44913 6.66418L12.8792 1.2341C13.0516 1.06172 13.2641 0.975527 13.5168 0.975527C13.7694 0.975527 13.9879 1.06788 14.1721 1.25257C14.3568 1.43727 14.4491 1.65275 14.4491 1.89901C14.4491 2.14527 14.3568 2.36075 14.1721 2.54545Z" fill="white"/>
</svg>
